<svg xmlns="http://www.w3.org/2000/svg" aria-labelledby="title" viewBox="0 0 1339.41 426.93"><defs><style>.a{fill:#fff;}.b{fill:#f76800;}.c{fill:none;stroke:#f76800;stroke-linecap:round;stroke-linejoin:round;stroke-width:0.71px;}</style></defs><title>MERC</title><path class="a" d="M896.81,339.59v17.82C852.18,377.23,786.29,369.29,749,339.59Z" transform="translate(-53.79 -85.73)"/><polygon class="a" points="640.74 253.86 659.24 282.64 572.9 282.64 554.41 253.86 640.74 253.86"/><polygon class="a" points="508.15 253.86 508.15 282.64 436.21 282.64 436.22 253.86 508.15 253.86"/><path class="a" d="M896.81,281.89V332.4H739.91c-16-12.33-34.1-39.1-38.85-57.61h76A71.93,71.93,0,0,0,875.33,301C882.29,297.37,892.42,288.37,896.81,281.89Z" transform="translate(-53.79 -85.73)"/><polygon class="a" points="599.11 189.06 636.12 246.67 549.79 246.67 512.78 189.06 599.11 189.06"/><polygon class="a" points="508.15 189.06 508.15 246.67 436.22 246.67 436.24 189.06 508.15 189.06"/><polygon class="a" points="253.03 189.06 219.68 246.67 160.64 246.67 145.49 189.06 253.03 189.06"/><polygon class="a" points="215.52 253.86 198.85 282.64 170.1 282.64 162.53 253.86 215.52 253.86"/><polygon class="a" points="117.3 189.06 94.83 246.67 21.68 246.67 41.43 189.06 117.3 189.06"/><polygon class="a" points="92.03 253.86 80.8 282.64 9.35 282.64 19.21 253.86 92.03 253.86"/><rect class="a" x="278.02" y="253.86" width="143.89" height="28.73"/><polygon class="a" points="421.91 225.04 421.91 246.67 278.02 246.67 278.02 189.06 342.77 189.06 342.77 225.04 421.91 225.04"/><path class="a" d="M773.36,267.6H699c-4.81-15.28-4.83-42.27,0-57.55h74.33C765.29,225.82,765.33,251.85,773.36,267.6Z" transform="translate(-53.79 -85.73)"/><path class="a" d="M607,210.05h86.6c-3.59,22.83-24,48.71-45.33,57.55H490l0-57.55h72.08v13.09H581C590.65,224.29,602.23,218.45,607,210.05Z" transform="translate(-53.79 -85.73)"/><polygon class="a" points="421.91 124.32 421.91 181.87 342.77 181.87 278.02 181.87 278.02 145.9 257.2 181.87 143.59 181.87 134.13 145.9 120.11 181.87 43.9 181.87 63.63 124.32 191.31 124.32 198.88 160.29 219.71 124.32 342.77 124.32 421.91 124.32"/><polygon class="a" points="170.11 23.59 177.68 59.57 98.16 59.57 85.83 59.57 98.16 23.59 170.11 23.59"/><path class="a" d="M685.22,152.49c7.89,12.59,12.31,35.75,9.61,50.36H610.27A28.33,28.33,0,0,0,581,166.63H562.13v36.22H490.06V152.49Z" transform="translate(-53.79 -85.73)"/><path class="a" d="M896.81,152.49v43.06a72,72,0,0,0-100.72-14.39c-6.55,4.44-15.59,14.66-19.2,21.69H701c4-15.46,18.5-39.07,30.9-50.36Z" transform="translate(-53.79 -85.73)"/><path class="a" d="M896.81,120V145.3H739.61C777.57,109.72,847.51,98.48,896.81,120Z" transform="translate(-53.79 -85.73)"/><path class="a" d="M680.79,145.3H490.08V109.22h122.3C637.18,108,667.84,124.12,680.79,145.3Z" transform="translate(-53.79 -85.73)"/><polygon class="a" points="421.91 66.76 421.91 81.15 342.77 81.15 342.77 117.12 223.88 117.12 253.03 66.76 421.91 66.76"/><polygon class="a" points="179.19 66.76 189.8 117.12 66.1 117.12 83.36 66.76 179.19 66.76"/><polygon class="a" points="421.91 23.59 421.91 59.57 257.2 59.57 278.02 23.59 421.91 23.59"/><path class="a" d="M921.42,135.79V86.57h9.81l11.65,34.85q1.62,4.88,2.35,7.29.84-2.69,2.62-7.89l11.79-34.25h8.76v49.22h-6.28V94.59l-14.3,41.2h-5.88L927.7,93.89v41.9Z" transform="translate(-53.79 -85.73)"/><path class="a" d="M979.05,135.79V86.57h35.59v5.81H985.56v15.07h27.23v5.78H985.56V130h30.22v5.81Z" transform="translate(-53.79 -85.73)"/><path class="a" d="M1024.88,135.79V86.57h21.83c4.38,0,7.72.44,10,1.32a11,11,0,0,1,5.48,4.69,14,14,0,0,1,2,7.42,12.4,12.4,0,0,1-3.4,8.83q-3.39,3.6-10.47,4.57a17,17,0,0,1,3.93,2.45,33.69,33.69,0,0,1,5.4,6.55l8.56,13.39h-8.19l-6.51-10.24c-1.91-3-3.47-5.21-4.7-6.78a14.83,14.83,0,0,0-3.31-3.29,9.93,9.93,0,0,0-3-1.31,19.22,19.22,0,0,0-3.63-.24h-7.56v21.86Zm6.51-27.5h14a20.86,20.86,0,0,0,7-.92,7.42,7.42,0,0,0,3.83-3,8,8,0,0,0,1.31-4.41,7.33,7.33,0,0,0-2.54-5.74q-2.54-2.25-8-2.25h-15.59Z" transform="translate(-53.79 -85.73)"/><path class="a" d="M1109.57,118.53l6.51,1.65q-2.05,8-7.37,12.24a20.31,20.31,0,0,1-13,4.21q-8,0-13-3.24a20.23,20.23,0,0,1-7.58-9.38,33.43,33.43,0,0,1-2.61-13.2,29,29,0,0,1,2.94-13.41,20.15,20.15,0,0,1,8.36-8.7,24.47,24.47,0,0,1,11.94-3,20.14,20.14,0,0,1,12.42,3.76,19.51,19.51,0,0,1,7,10.58l-6.41,1.51q-1.71-5.37-5-7.83a13.26,13.26,0,0,0-8.19-2.45,15.93,15.93,0,0,0-9.49,2.72,14.36,14.36,0,0,0-5.36,7.31,29.33,29.33,0,0,0-1.54,9.45,30,30,0,0,0,1.83,11,13.64,13.64,0,0,0,5.69,7,15.9,15.9,0,0,0,8.36,2.32,14,14,0,0,0,9.27-3.16Q1108.22,124.75,1109.57,118.53Z" transform="translate(-53.79 -85.73)"/><path class="a" d="M1124.24,135.79V86.57h35.59v5.81h-29.08v15.07H1158v5.78h-27.24V130H1161v5.81Z" transform="translate(-53.79 -85.73)"/><path class="a" d="M1170.08,135.79V86.57h21.82q6.58,0,10,1.32a11,11,0,0,1,5.47,4.69,13.93,13.93,0,0,1,2,7.42,12.39,12.39,0,0,1-3.39,8.83q-3.39,3.6-10.48,4.57a16.58,16.58,0,0,1,3.93,2.45,33.72,33.72,0,0,1,5.41,6.55l8.56,13.39h-8.19l-6.52-10.24q-2.85-4.42-4.7-6.78a14.63,14.63,0,0,0-3.31-3.29,9.72,9.72,0,0,0-3-1.31,19.22,19.22,0,0,0-3.63-.24h-7.55v21.86Zm6.51-27.5h14a20.93,20.93,0,0,0,7-.92,7.4,7.4,0,0,0,3.82-3,7.91,7.91,0,0,0,1.31-4.41,7.32,7.32,0,0,0-2.53-5.74q-2.54-2.25-8-2.25h-15.58Z" transform="translate(-53.79 -85.73)"/><path class="a" d="M921.48,214.53V165.3h35.59v5.81H928v15.08h27.24V192H928v16.76h30.22v5.81Z" transform="translate(-53.79 -85.73)"/><path class="a" d="M967.15,214.53V165.3h6.68L999.68,204V165.3h6.25v49.23h-6.68l-25.86-38.69v38.69Z" transform="translate(-53.79 -85.73)"/><path class="a" d="M1039.91,195.22v-5.78l20.85,0v18.27a37,37,0,0,1-9.9,5.76,29.55,29.55,0,0,1-10.48,1.93,28,28,0,0,1-13.18-3.11,20.55,20.55,0,0,1-9-9,28.36,28.36,0,0,1-3-13.13,30.43,30.43,0,0,1,3-13.42,20,20,0,0,1,8.64-9.25,27.18,27.18,0,0,1,13-3,25.76,25.76,0,0,1,9.65,1.73,16,16,0,0,1,6.77,4.82,21.54,21.54,0,0,1,3.73,8.06l-5.88,1.61a18.3,18.3,0,0,0-2.75-5.91,11.36,11.36,0,0,0-4.7-3.44,17.3,17.3,0,0,0-6.79-1.29,19.88,19.88,0,0,0-7.72,1.36,14.39,14.39,0,0,0-5.26,3.57,17.12,17.12,0,0,0-3.1,4.87,25.65,25.65,0,0,0-1.88,9.91,24.07,24.07,0,0,0,2.26,11,14.5,14.5,0,0,0,6.6,6.58,20.49,20.49,0,0,0,9.2,2.15,21.75,21.75,0,0,0,8.26-1.63,21,21,0,0,0,6.11-3.47v-9.17Z" transform="translate(-53.79 -85.73)"/><path class="a" d="M1071.48,214.53V165.3H1078v49.23Z" transform="translate(-53.79 -85.73)"/><path class="a" d="M1089.41,214.53V165.3h6.68L1122,204V165.3h6.24v49.23h-6.68l-25.86-38.69v38.69Z" transform="translate(-53.79 -85.73)"/><path class="a" d="M1139.27,214.53V165.3h35.6v5.81h-29.08v15.08H1173V192h-27.23v16.76H1176v5.81Z" transform="translate(-53.79 -85.73)"/><path class="a" d="M1185.14,214.53V165.3h35.59v5.81h-29.08v15.08h27.24V192h-27.24v16.76h30.23v5.81Z" transform="translate(-53.79 -85.73)"/><path class="a" d="M1231,214.53V165.3h21.82q6.59,0,10,1.33a10.89,10.89,0,0,1,5.47,4.68,13.93,13.93,0,0,1,2,7.42,12.37,12.37,0,0,1-3.39,8.83q-3.39,3.6-10.48,4.57a16.91,16.91,0,0,1,3.93,2.45,34,34,0,0,1,5.41,6.55l8.56,13.4h-8.19l-6.52-10.24q-2.85-4.44-4.7-6.79a14.84,14.84,0,0,0-3.31-3.29,10,10,0,0,0-3-1.31,20.36,20.36,0,0,0-3.63-.23h-7.55v21.86Zm6.51-27.5h14a20.89,20.89,0,0,0,7-.93,7.38,7.38,0,0,0,3.82-2.95,8,8,0,0,0,1.31-4.42,7.32,7.32,0,0,0-2.53-5.74q-2.53-2.25-8-2.25h-15.58Z" transform="translate(-53.79 -85.73)"/><path class="a" d="M1281.65,214.53V165.3h6.51v49.23Z" transform="translate(-53.79 -85.73)"/><path class="a" d="M1299.58,214.53V165.3h6.68L1332.12,204V165.3h6.24v49.23h-6.68l-25.86-38.69v38.69Z" transform="translate(-53.79 -85.73)"/><path class="a" d="M1372.34,195.22v-5.78l20.86,0v18.27a37.15,37.15,0,0,1-9.91,5.76,29.55,29.55,0,0,1-10.48,1.93,28,28,0,0,1-13.18-3.11,20.55,20.55,0,0,1-9-9,28.36,28.36,0,0,1-3-13.13,30.43,30.43,0,0,1,3-13.42,20,20,0,0,1,8.64-9.25,27.18,27.18,0,0,1,13-3,25.76,25.76,0,0,1,9.65,1.73,16,16,0,0,1,6.77,4.82,21.39,21.39,0,0,1,3.73,8.06l-5.88,1.61a18.3,18.3,0,0,0-2.75-5.91,11.36,11.36,0,0,0-4.7-3.44,17.3,17.3,0,0,0-6.79-1.29,19.91,19.91,0,0,0-7.72,1.36,14.39,14.39,0,0,0-5.26,3.57,17.12,17.12,0,0,0-3.1,4.87,25.65,25.65,0,0,0-1.88,9.91,24.07,24.07,0,0,0,2.26,11,14.6,14.6,0,0,0,6.6,6.58,20.49,20.49,0,0,0,9.2,2.15,21.75,21.75,0,0,0,8.26-1.63,21,21,0,0,0,6.11-3.47v-9.17Z" transform="translate(-53.79 -85.73)"/><path class="a" d="M921.45,293.26V244h21.82c4.39,0,7.73.45,10,1.33a11,11,0,0,1,5.47,4.68,14,14,0,0,1,2,7.43,12.39,12.39,0,0,1-3.39,8.83q-3.39,3.58-10.48,4.56a17.13,17.13,0,0,1,3.93,2.45,34,34,0,0,1,5.41,6.55l8.56,13.4h-8.19L950.12,283q-2.85-4.44-4.7-6.78a14.42,14.42,0,0,0-3.31-3.29,9.48,9.48,0,0,0-3-1.31,19.17,19.17,0,0,0-3.62-.24H928v21.86Zm6.51-27.5h14a21.19,21.19,0,0,0,7-.92,7.46,7.46,0,0,0,3.83-3,8,8,0,0,0,1.3-4.41,7.34,7.34,0,0,0-2.53-5.75q-2.53-2.25-8-2.25H928Z" transform="translate(-53.79 -85.73)"/><path class="a" d="M971.14,293.26V244h35.6v5.81H977.66v15.08h27.23v5.78H977.66v16.75h30.22v5.81Z" transform="translate(-53.79 -85.73)"/><path class="a" d="M1014.66,277.45l6.15-.54a13.49,13.49,0,0,0,2,6.06,11.09,11.09,0,0,0,4.95,3.83,18.84,18.84,0,0,0,7.56,1.46,18.11,18.11,0,0,0,6.58-1.11,9.06,9.06,0,0,0,4.24-3,7,7,0,0,0,1.4-4.21,6.38,6.38,0,0,0-1.35-4,9.9,9.9,0,0,0-4.43-2.9,85.45,85.45,0,0,0-8.76-2.41,44.56,44.56,0,0,1-9.5-3.07,13.27,13.27,0,0,1-5.26-4.58,11.28,11.28,0,0,1-1.73-6.13,12.54,12.54,0,0,1,2.12-7,13.12,13.12,0,0,1,6.17-4.92,23.44,23.44,0,0,1,9-1.68,24.58,24.58,0,0,1,9.65,1.77,13.84,13.84,0,0,1,6.43,5.19,14.84,14.84,0,0,1,2.42,7.75l-6.25.47a10.07,10.07,0,0,0-3.4-7.05q-2.91-2.38-8.58-2.38-5.91,0-8.62,2.16a6.51,6.51,0,0,0-2.7,5.22,5.62,5.62,0,0,0,1.91,4.37q1.89,1.71,9.83,3.51a64.75,64.75,0,0,1,10.89,3.14,14.9,14.9,0,0,1,6.35,5,12.26,12.26,0,0,1,2,7,13.36,13.36,0,0,1-2.25,7.4,14.83,14.83,0,0,1-6.47,5.41,22.46,22.46,0,0,1-9.48,1.93,28.28,28.28,0,0,1-11.2-2,15.74,15.74,0,0,1-7.09-5.86A16.59,16.59,0,0,1,1014.66,277.45Z" transform="translate(-53.79 -85.73)"/><path class="a" d="M1062.88,293.26V244h35.59v5.81h-29.08v15.08h27.24v5.78h-27.24v16.75h30.23v5.81Z" transform="translate(-53.79 -85.73)"/><path class="a" d="M1103.21,293.26l18.9-49.23h7l20.15,49.23h-7.42l-5.74-14.91h-20.59l-5.4,14.91Zm14.2-20.21h16.69L1129,259.41q-2.34-6.21-3.49-10.2a63.46,63.46,0,0,1-2.65,9.4Z" transform="translate(-53.79 -85.73)"/><path class="a" d="M1154.58,293.26V244h21.83c4.39,0,7.72.45,10,1.33a11,11,0,0,1,5.47,4.68,14,14,0,0,1,2,7.43,12.39,12.39,0,0,1-3.39,8.83q-3.39,3.58-10.48,4.56a17.35,17.35,0,0,1,3.93,2.45,34.39,34.39,0,0,1,5.41,6.55l8.56,13.4h-8.2L1183.26,283q-2.85-4.44-4.7-6.78a14.42,14.42,0,0,0-3.31-3.29,9.48,9.48,0,0,0-3-1.31,19.22,19.22,0,0,0-3.63-.24h-7.55v21.86Zm6.52-27.5h14a21.08,21.08,0,0,0,7-.92,7.42,7.42,0,0,0,3.83-3,7.91,7.91,0,0,0,1.31-4.41,7.34,7.34,0,0,0-2.53-5.75q-2.54-2.25-8-2.25H1161.1Z" transform="translate(-53.79 -85.73)"/><path class="a" d="M1239.27,276l6.51,1.65q-2,8-7.37,12.24a20.27,20.27,0,0,1-13,4.21q-8,0-12.94-3.24a20.17,20.17,0,0,1-7.59-9.39,33.34,33.34,0,0,1-2.6-13.19,29.14,29.14,0,0,1,2.93-13.42,20.18,20.18,0,0,1,8.36-8.69,24.48,24.48,0,0,1,11.94-3,20.18,20.18,0,0,1,12.43,3.77,19.54,19.54,0,0,1,7,10.57l-6.42,1.51q-1.71-5.37-5-7.82a13.26,13.26,0,0,0-8.19-2.45,15.93,15.93,0,0,0-9.49,2.72,14.36,14.36,0,0,0-5.35,7.3,29.43,29.43,0,0,0-1.55,9.45,30.09,30.09,0,0,0,1.83,11,13.64,13.64,0,0,0,5.69,7,16,16,0,0,0,8.36,2.32,14,14,0,0,0,9.27-3.16Q1237.93,282.22,1239.27,276Z" transform="translate(-53.79 -85.73)"/><path class="a" d="M1254,293.26V244h6.52v20.22h25.58V244h6.52v49.23h-6.52v-23.2h-25.58v23.2Z" transform="translate(-53.79 -85.73)"/><path class="a" d="M958.34,354.74l6.51,1.64q-2,8-7.37,12.24a20.29,20.29,0,0,1-13,4.21q-8,0-12.94-3.24a20.14,20.14,0,0,1-7.59-9.38,33.43,33.43,0,0,1-2.61-13.2,29,29,0,0,1,2.94-13.41,20.15,20.15,0,0,1,8.36-8.7,24.47,24.47,0,0,1,11.94-3A20.17,20.17,0,0,1,957,325.69a19.55,19.55,0,0,1,7,10.58l-6.41,1.51q-1.71-5.37-5-7.83a13.26,13.26,0,0,0-8.19-2.45,15.93,15.93,0,0,0-9.49,2.72,14.39,14.39,0,0,0-5.35,7.31,29.34,29.34,0,0,0-1.55,9.45,30,30,0,0,0,1.83,11,13.6,13.6,0,0,0,5.69,7,15.93,15.93,0,0,0,8.36,2.32,14,14,0,0,0,9.27-3.16Q957,361,958.34,354.74Z" transform="translate(-53.79 -85.73)"/><path class="a" d="M973,372V322.77h35.6v5.81H979.53v15.07h27.23v5.78H979.53v16.76h30.22V372Z" transform="translate(-53.79 -85.73)"/><path class="a" d="M1018.68,372V322.77h6.68l25.86,38.65V322.77h6.24V372h-6.68l-25.85-38.69V372Z" transform="translate(-53.79 -85.73)"/><path class="a" d="M1080.94,372V328.58h-16.22v-5.81h39v5.81h-16.29V372Z" transform="translate(-53.79 -85.73)"/><path class="a" d="M1110.55,372V322.77h35.6v5.81h-29.08v15.07h27.23v5.78h-27.23v16.76h30.22V372Z" transform="translate(-53.79 -85.73)"/><path class="a" d="M1156.39,372V322.77h21.82q6.58,0,10,1.32a11,11,0,0,1,5.47,4.69,13.93,13.93,0,0,1,2,7.42,12.37,12.37,0,0,1-3.39,8.83q-3.39,3.6-10.48,4.57a16.58,16.58,0,0,1,3.93,2.45,33.36,33.36,0,0,1,5.41,6.55l8.56,13.4h-8.19l-6.52-10.25q-2.85-4.42-4.7-6.78a14.63,14.63,0,0,0-3.31-3.29,9.72,9.72,0,0,0-3-1.31,19.31,19.31,0,0,0-3.62-.23h-7.56V372Zm6.51-27.51h14a20.93,20.93,0,0,0,7-.92,7.45,7.45,0,0,0,3.83-2.95,8,8,0,0,0,1.31-4.42,7.33,7.33,0,0,0-2.54-5.74q-2.54-2.25-8-2.25H1162.9Z" transform="translate(-53.79 -85.73)"/><path class="b" d="M1376.86,397.15c5,0,9,9,9,9s-4,9-9,9H63.14a9,9,0,1,1,0-18Z" transform="translate(-53.79 -85.73)"/><line class="c" x1="9.35" y1="311.42" x2="1323.07" y2="311.42"/><line class="c" x1="9.35" y1="329.4" x2="1323.07" y2="329.4"/><path class="c" d="M1376.86,415.13c5,0,9-9,9-9s-4-9-9-9" transform="translate(-53.79 -85.73)"/><path class="c" d="M63.14,397.15a9,9,0,1,0,0,18" transform="translate(-53.79 -85.73)"/><path class="a" d="M77.81,495.52,96.26,437.2H103l19.58,58.32h-7.24l-5.56-17.66H89.68l-5.19,17.66Zm13.72-23.95h16.29l-5-16.15q-2.3-7.44-3.38-12.09a84.43,84.43,0,0,1-2.62,11.14Z" transform="translate(-53.79 -85.73)"/><path class="a" d="M126.78,495.52V453.27h5.29v6a13.69,13.69,0,0,1,4.67-5.2,11.69,11.69,0,0,1,6.33-1.72,12.06,12.06,0,0,1,5.14,1.09,10.48,10.48,0,0,1,3.81,2.87,11.67,11.67,0,0,1,2.17,4.59,38.2,38.2,0,0,1,.71,8.67v26h-5.84V469.79a21.25,21.25,0,0,0-.8-6.81,6.6,6.6,0,0,0-6.4-4.5,8.16,8.16,0,0,0-6.73,3.15q-2.5,3.15-2.5,10.79v23.1Z" transform="translate(-53.79 -85.73)"/><path class="a" d="M181.56,467.12q0-14.92,6.56-22.94t16.35-8A19.89,19.89,0,0,1,216,439.75a24.14,24.14,0,0,1,8.26,10.4,39.67,39.67,0,0,1,3,16.25q0,13-5.89,21.12-6.48,9-17,9t-17-9.23Q181.55,478.92,181.56,467.12Zm6.52.1q0,10.78,4.75,16.74t11.56,6q7,0,11.67-6t4.72-17.68a35.29,35.29,0,0,0-2.43-13.46,16.57,16.57,0,0,0-5.63-7.26,13.68,13.68,0,0,0-8.21-2.73,14.32,14.32,0,0,0-11.8,6Q188.08,454.73,188.08,467.22Z" transform="translate(-53.79 -85.73)"/><path class="a" d="M234.5,511.71V453.27h5.41v5.49a13.73,13.73,0,0,1,4.41-4.93,10.25,10.25,0,0,1,5.56-1.51,12.13,12.13,0,0,1,7.38,2.43,16.55,16.55,0,0,1,5.31,7.37,31.93,31.93,0,0,1,2,11.92q0,10.77-4.51,16.6t-10.6,5.83a9.74,9.74,0,0,1-5.06-1.39,12.74,12.74,0,0,1-4.05-3.94v20.57Zm5.34-37.08q0,8.21,2.73,12.08t6.63,3.87c2.49,0,4.67-1.33,6.55-4s2.82-6.82,2.82-12.41-.92-9.6-2.74-12.25-4.05-4-6.67-4c-2.35,0-4.5,1.42-6.43,4.27S239.84,469.2,239.84,474.63Z" transform="translate(-53.79 -85.73)"/><path class="a" d="M295.32,481.91l6.05.92q-1.51,6.76-5.47,10.2a14.4,14.4,0,0,1-9.81,3.44,14.61,14.61,0,0,1-11.91-5.59q-4.56-5.58-4.56-16.13,0-10.94,4.6-16.68a14.25,14.25,0,0,1,11.63-5.75A13.79,13.79,0,0,1,297.07,458q4.5,5.64,4.5,16.35l0,1.91H275.67Q276,483.34,279,487a8.91,8.91,0,0,0,7.16,3.62C290.53,490.58,293.6,487.7,295.32,481.91ZM276,470.34h19.33q-.41-5.49-2.35-8.2a8.54,8.54,0,0,0-13.92-.65A14.32,14.32,0,0,0,276,470.34Z" transform="translate(-53.79 -85.73)"/><path class="a" d="M308.81,495.52V453.27h5.29v6.41q2-4.46,3.71-5.91a5.69,5.69,0,0,1,3.8-1.45,10,10,0,0,1,6,2.31l-2,6.64a7.35,7.35,0,0,0-4.25-1.55A5.23,5.23,0,0,0,318,461a7.09,7.09,0,0,0-2.18,3.66,32.79,32.79,0,0,0-1.12,8.71v22.12Z" transform="translate(-53.79 -85.73)"/><path class="a" d="M353.6,490.31a22,22,0,0,1-6.13,4.61,14.94,14.94,0,0,1-6.6,1.55,11.62,11.62,0,0,1-8.64-3.26,12,12,0,0,1-3.22-8.79,13.59,13.59,0,0,1,1.51-6.48,11.24,11.24,0,0,1,4.14-4.42,21.83,21.83,0,0,1,8-2.35,44.52,44.52,0,0,0,10.5-2.5l0-1.83q0-4.33-1.55-6.09c-1.46-1.7-3.7-2.54-6.73-2.54-2.73,0-4.77.56-6.12,1.7s-2.35,3.25-3,6.37l-5.76-.95q1.23-6.81,5-9.91t10.76-3.1q5.44,0,8.55,2.05a8.77,8.77,0,0,1,3.92,5.07,36.31,36.31,0,0,1,.81,8.83v9.55a122.22,122.22,0,0,0,.38,12.63,19,19,0,0,0,1.49,5.07h-6.12A17.61,17.61,0,0,1,353.6,490.31Zm-.48-16a37.21,37.21,0,0,1-9.59,2.7,18.28,18.28,0,0,0-5.17,1.45,5.85,5.85,0,0,0-2.29,2.31,7.08,7.08,0,0,0-.81,3.44,6.38,6.38,0,0,0,1.87,4.83,7.1,7.1,0,0,0,5.17,1.81,10.41,10.41,0,0,0,5.71-1.63,10.07,10.07,0,0,0,3.83-4.35,19.37,19.37,0,0,0,1.28-7.94Z" transform="translate(-53.79 -85.73)"/><path class="a" d="M381.24,489.11l.8,6.33a17.63,17.63,0,0,1-4.38.63,8.91,8.91,0,0,1-4.93-1.21,6.16,6.16,0,0,1-2.57-3.32c-.46-1.41-.69-4.2-.69-8.39V458.84h-4.3v-5.57h4.3V442.81l5.84-4.29v14.75h5.93v5.57h-5.93v24.7a11.73,11.73,0,0,0,.52,4.42,2.91,2.91,0,0,0,2.83,1.43A15.21,15.21,0,0,0,381.24,489.11Z" transform="translate(-53.79 -85.73)"/><path class="a" d="M386.77,445.44V437.2h5.85v8.24Zm0,50.08V453.27h5.85v42.25Z" transform="translate(-53.79 -85.73)"/><path class="a" d="M401.61,495.52V453.27h5.29v6a13.67,13.67,0,0,1,4.66-5.2,11.7,11.7,0,0,1,6.34-1.72,12.09,12.09,0,0,1,5.14,1.09,10.65,10.65,0,0,1,3.81,2.87,11.67,11.67,0,0,1,2.17,4.59,38.8,38.8,0,0,1,.71,8.67v26h-5.85V469.79a21.31,21.31,0,0,0-.79-6.81,6.6,6.6,0,0,0-6.41-4.5,8.14,8.14,0,0,0-6.72,3.15q-2.5,3.15-2.51,10.79v23.1Z" transform="translate(-53.79 -85.73)"/><path class="a" d="M437.61,499l5.72,1a7.39,7.39,0,0,0,2.39,5.06,8.37,8.37,0,0,0,5.53,1.66,8.56,8.56,0,0,0,9.27-7.35A52.9,52.9,0,0,0,461,490a13.84,13.84,0,0,1-4.3,4.1,10.3,10.3,0,0,1-5.29,1.39,12.55,12.55,0,0,1-10.3-5.25q-4.69-6-4.7-16.19a31.47,31.47,0,0,1,2.07-11.9,16.44,16.44,0,0,1,5.43-7.47,12.65,12.65,0,0,1,7.54-2.39,10.77,10.77,0,0,1,5.59,1.5,13.85,13.85,0,0,1,4.47,4.51v-5.06H467v36.52q0,9.75-1.59,13.9a13.44,13.44,0,0,1-5.21,6.56,15.33,15.33,0,0,1-8.71,2.41q-6.72,0-10.34-3.62T437.61,499Zm4.85-25.38q0,8.34,2.75,12.16t6.74,3.83a8.23,8.23,0,0,0,6.77-3.75q2.79-3.75,2.79-11.92,0-8-2.87-11.87c-1.91-2.59-4.24-3.88-7-3.88-2.45,0-4.59,1.29-6.44,3.88S442.46,468.54,442.46,473.64Z" transform="translate(-53.79 -85.73)"/><path class="a" d="M526.55,437.2h6.33v33.69a49.24,49.24,0,0,1-1.65,13.91,16,16,0,0,1-6,8.57,18.49,18.49,0,0,1-11.07,3.14q-9.46,0-14.17-5.65t-4.71-20V437.2h6.33v33.66q0,7.9,1.23,11.45a10.24,10.24,0,0,0,4,5.39,12.13,12.13,0,0,0,6.82,1.85q6.76,0,9.81-3.82t3-14.87Z" transform="translate(-53.79 -85.73)"/><path class="a" d="M542.7,495.52V453.27H548v6a13.69,13.69,0,0,1,4.67-5.2,11.69,11.69,0,0,1,6.33-1.72,12.06,12.06,0,0,1,5.14,1.09,10.48,10.48,0,0,1,3.81,2.87,11.67,11.67,0,0,1,2.17,4.59,38.8,38.8,0,0,1,.71,8.67v26H565V469.79a21.25,21.25,0,0,0-.8-6.81,6.6,6.6,0,0,0-6.4-4.5,8.15,8.15,0,0,0-6.73,3.15q-2.5,3.15-2.5,10.79v23.1Z" transform="translate(-53.79 -85.73)"/><path class="a" d="M579.85,445.44V437.2h5.85v8.24Zm0,50.08V453.27h5.85v42.25Z" transform="translate(-53.79 -85.73)"/><path class="a" d="M607.74,489.11l.79,6.33a17.56,17.56,0,0,1-4.37.63,9,9,0,0,1-4.94-1.21,6.14,6.14,0,0,1-2.56-3.32c-.47-1.41-.7-4.2-.7-8.39V458.84h-4.29v-5.57H596V442.81l5.85-4.29v14.75h5.93v5.57h-5.93v24.7a11.52,11.52,0,0,0,.52,4.42,2.89,2.89,0,0,0,2.82,1.43A15.31,15.31,0,0,0,607.74,489.11Z" transform="translate(-53.79 -85.73)"/><path class="a" d="M630.89,467.12q0-14.92,6.56-22.94t16.35-8a19.92,19.92,0,0,1,11.54,3.58,24.19,24.19,0,0,1,8.25,10.4,39.67,39.67,0,0,1,3,16.25q0,13-5.88,21.12-6.5,9-17,9t-17-9.23Q630.89,478.92,630.89,467.12Zm6.52.1q0,10.78,4.76,16.74c3.16,4,7,6,11.55,6s8.53-2,11.68-6,4.71-9.9,4.71-17.68a35.29,35.29,0,0,0-2.43-13.46,16.5,16.5,0,0,0-5.63-7.26,13.66,13.66,0,0,0-8.21-2.73,14.3,14.3,0,0,0-11.79,6Q637.42,454.73,637.41,467.22Z" transform="translate(-53.79 -85.73)"/><path class="a" d="M685.46,495.52V458.84h-5.21v-5.57h5.21v-4.49a20.41,20.41,0,0,1,1-7.46,7.9,7.9,0,0,1,3.17-3.8,10.12,10.12,0,0,1,5.37-1.31,22.8,22.8,0,0,1,5.5.75l-.88,6.21a16.64,16.64,0,0,0-3.46-.4,4.64,4.64,0,0,0-3.76,1.37c-.75.92-1.13,2.66-1.13,5.24v3.89h6.76v5.57h-6.76v36.68Z" transform="translate(-53.79 -85.73)"/><path class="a" d="M721.62,495.52V437.2h9.51l11.35,41.29,2.27,8.63c.56-2.14,1.41-5.26,2.55-9.34l11.47-40.58h8.52v58.32H761.2V446.75l-13.94,48.77h-5.69l-13.86-49.61v49.61Z" transform="translate(-53.79 -85.73)"/><path class="a" d="M800.3,481.91l6.05.92q-1.51,6.76-5.47,10.2a14.4,14.4,0,0,1-9.81,3.44,14.63,14.63,0,0,1-11.91-5.59q-4.56-5.58-4.55-16.13,0-10.94,4.59-16.68a14.25,14.25,0,0,1,11.63-5.75A13.77,13.77,0,0,1,802.05,458q4.5,5.64,4.5,16.35l0,1.91H780.65Q781,483.34,784,487a8.92,8.92,0,0,0,7.16,3.62C795.52,490.58,798.58,487.7,800.3,481.91ZM781,470.34h19.33c-.26-3.66-1.05-6.39-2.34-8.2a8.55,8.55,0,0,0-13.93-.65A14.45,14.45,0,0,0,781,470.34Z" transform="translate(-53.79 -85.73)"/><path class="a" d="M813.79,495.52V453.27h5.29v6.41q2-4.46,3.72-5.91a5.65,5.65,0,0,1,3.8-1.45,10,10,0,0,1,6,2.31l-2,6.64a7.33,7.33,0,0,0-4.25-1.55,5.18,5.18,0,0,0-3.42,1.31,7,7,0,0,0-2.19,3.66,33.2,33.2,0,0,0-1.12,8.71v22.12Z" transform="translate(-53.79 -85.73)"/><path class="a" d="M858.7,480l5.76.92q-1,7.56-5,11.53a13.08,13.08,0,0,1-9.6,4,13.63,13.63,0,0,1-11.2-5.59q-4.39-5.58-4.4-16.52t4.44-16.53a14,14,0,0,1,11.39-5.51,13,13,0,0,1,9,3.34q3.69,3.34,4.72,10l-5.69,1a12.51,12.51,0,0,0-2.9-6.4,6.71,6.71,0,0,0-5-2.11,8.63,8.63,0,0,0-7.18,3.83q-2.83,3.84-2.84,12.2,0,8.63,2.72,12.49a8.25,8.25,0,0,0,7,3.85,7.47,7.47,0,0,0,5.7-2.56Q858.06,485.46,858.7,480Z" transform="translate(-53.79 -85.73)"/><path class="a" d="M893.1,481.91l6,.92q-1.51,6.76-5.47,10.2a14.39,14.39,0,0,1-9.8,3.44A14.63,14.63,0,0,1,872,490.88q-4.55-5.58-4.55-16.13,0-10.94,4.59-16.68a14.27,14.27,0,0,1,11.64-5.75A13.76,13.76,0,0,1,894.85,458q4.5,5.64,4.5,16.35l0,1.91H873.45q.36,7.11,3.31,10.73a8.89,8.89,0,0,0,7.16,3.62C888.32,490.58,891.38,487.7,893.1,481.91Zm-19.29-11.57h19.33q-.39-5.49-2.34-8.2a8.54,8.54,0,0,0-13.92-.65A14.39,14.39,0,0,0,873.81,470.34Z" transform="translate(-53.79 -85.73)"/><path class="a" d="M906.59,495.52V453.27h5.29v6.41q2-4.46,3.72-5.91a5.67,5.67,0,0,1,3.8-1.45,10,10,0,0,1,6,2.31l-2,6.64a7.35,7.35,0,0,0-4.26-1.55,5.18,5.18,0,0,0-3.42,1.31,7,7,0,0,0-2.19,3.66,33.2,33.2,0,0,0-1.11,8.71v22.12Z" transform="translate(-53.79 -85.73)"/><path class="a" d="M979.46,437.2h6.33v33.69a48.88,48.88,0,0,1-1.65,13.91,16,16,0,0,1-6,8.57,18.47,18.47,0,0,1-11.07,3.14q-9.45,0-14.16-5.65t-4.71-20V437.2h6.32v33.66q0,7.9,1.23,11.45a10.29,10.29,0,0,0,4,5.39,12.15,12.15,0,0,0,6.82,1.85q6.76,0,9.81-3.82t3-14.87Z" transform="translate(-53.79 -85.73)"/><path class="a" d="M995.61,495.52V453.27h5.29v6a13.69,13.69,0,0,1,4.67-5.2,11.69,11.69,0,0,1,6.33-1.72,12.06,12.06,0,0,1,5.14,1.09,10.6,10.6,0,0,1,3.82,2.87,11.8,11.8,0,0,1,2.16,4.59,38.08,38.08,0,0,1,.72,8.67v26h-5.85V469.79a21.25,21.25,0,0,0-.8-6.81,6.58,6.58,0,0,0-6.4-4.5,8.14,8.14,0,0,0-6.72,3.15q-2.52,3.15-2.51,10.79v23.1Z" transform="translate(-53.79 -85.73)"/><path class="a" d="M1032.77,445.44V437.2h5.84v8.24Zm0,50.08V453.27h5.84v42.25Z" transform="translate(-53.79 -85.73)"/><path class="a" d="M1057.28,495.52l-13.18-42.25h6.21l7.45,25.3c.85,2.87,1.6,5.7,2.23,8.51.51-2.22,1.22-4.9,2.16-8l7.73-25.78h6l-13.17,42.25Z" transform="translate(-53.79 -85.73)"/><path class="a" d="M1104.68,481.91l6,.92q-1.51,6.76-5.47,10.2a14.39,14.39,0,0,1-9.8,3.44,14.63,14.63,0,0,1-11.92-5.59q-4.55-5.58-4.55-16.13,0-10.94,4.59-16.68a14.27,14.27,0,0,1,11.64-5.75,13.76,13.76,0,0,1,11.21,5.65q4.5,5.64,4.5,16.35l0,1.91H1085q.36,7.11,3.31,10.73a8.89,8.89,0,0,0,7.16,3.62C1099.9,490.58,1103,487.7,1104.68,481.91Zm-19.29-11.57h19.33q-.39-5.49-2.34-8.2a8.54,8.54,0,0,0-13.92-.65A14.39,14.39,0,0,0,1085.39,470.34Z" transform="translate(-53.79 -85.73)"/><path class="a" d="M1118.17,495.52V453.27h5.29v6.41q2-4.46,3.72-5.91a5.67,5.67,0,0,1,3.8-1.45,10,10,0,0,1,6,2.31l-2,6.64a7.35,7.35,0,0,0-4.26-1.55,5.18,5.18,0,0,0-3.42,1.31,7,7,0,0,0-2.19,3.66,33.2,33.2,0,0,0-1.11,8.71v22.12Z" transform="translate(-53.79 -85.73)"/><path class="a" d="M1138.14,482.87l5.85-1.12q.51,4.49,2.81,6.66a9.93,9.93,0,0,0,12,.29,6.19,6.19,0,0,0,2.08-4.8,4.67,4.67,0,0,0-1.79-3.9c-.82-.63-2.81-1.43-6-2.38q-6.84-2.12-9.14-3.58a10,10,0,0,1-3.58-3.94,12,12,0,0,1-1.28-5.61,11.76,11.76,0,0,1,3.46-8.79q3.47-3.37,9.59-3.38a15.58,15.58,0,0,1,6.78,1.39,10.83,10.83,0,0,1,4.48,3.74,16.24,16.24,0,0,1,2.14,6.72l-5.72,1q-.79-6.93-7.52-6.92c-2.55,0-4.44.5-5.69,1.52a4.81,4.81,0,0,0-1.87,3.9,4.38,4.38,0,0,0,1.79,3.69,31.61,31.61,0,0,0,6.38,2.53q7.29,2.31,9.43,3.69a9.32,9.32,0,0,1,3.33,3.75,12.47,12.47,0,0,1,1.19,5.63,13.1,13.1,0,0,1-3.84,9.81q-3.84,3.74-10.48,3.74Q1140.13,496.47,1138.14,482.87Z" transform="translate(-53.79 -85.73)"/><path class="a" d="M1173.82,445.44V437.2h5.85v8.24Zm0,50.08V453.27h5.85v42.25Z" transform="translate(-53.79 -85.73)"/><path class="a" d="M1201.7,489.11l.8,6.33a17.63,17.63,0,0,1-4.38.63,8.93,8.93,0,0,1-4.93-1.21,6.16,6.16,0,0,1-2.57-3.32c-.46-1.41-.69-4.2-.69-8.39V458.84h-4.3v-5.57h4.3V442.81l5.85-4.29v14.75h5.92v5.57h-5.92v24.7a11.8,11.8,0,0,0,.51,4.42,2.92,2.92,0,0,0,2.83,1.43A15.21,15.21,0,0,0,1201.7,489.11Z" transform="translate(-53.79 -85.73)"/><path class="a" d="M1207,511.79l-.63-6.73a10.89,10.89,0,0,0,3.34.64,5.1,5.1,0,0,0,5.1-3.1q.27-.56,2.31-7L1204,453.27h6.32l7.24,24.45q1.35,4.57,2.51,9.78,1-4.92,2.39-9.62l7.4-24.61h5.88l-13.14,43a77.38,77.38,0,0,1-4.08,11.16,10.69,10.69,0,0,1-3.39,4,7.68,7.68,0,0,1-4.28,1.23A10.1,10.1,0,0,1,1207,511.79Z" transform="translate(-53.79 -85.73)"/></svg>